<svg width="195" height="90" viewBox="0 0 195 90" fill="none" xmlns="http://www.w3.org/2000/svg">
<path d="M194.634 11.9142C194.634 5.33625 187.016 1.68825 181.891 5.81225L155.796 26.8142C150.062 31.4292 141.887 31.4292 136.153 26.8142L107.137 3.46125C101.403 -1.15375 93.228 -1.15375 87.494 3.46125L58.48 26.8132C52.746 31.4282 44.571 31.4282 38.837 26.8132L12.743 5.81325C7.618 1.68925 3.0721e-10 5.33625 3.0721e-10 11.9152C3.0721e-10 11.9152 -0.00899506 89.9573 97.313 89.9573C194.635 89.9573 194.634 11.9142 194.634 11.9142V11.9142Z" fill="#F7EF87"/>
<path d="M58.479 26.8142C52.744 31.4292 44.57 31.4292 38.836 26.8142L12.743 5.81321C7.619 1.68921 3.0721e-10 5.33621 3.0721e-10 11.9152C3.0721e-10 11.9152 -0.00899506 89.9572 97.313 89.9572C64.978 89.9562 42.849 39.1142 58.479 26.8142V26.8142Z" fill="#EFD176"/>
</svg>
