<svg width="512" height="456" viewBox="0 0 512 456" fill="none" xmlns="http://www.w3.org/2000/svg">
<path d="M256 435.396C397.385 435.396 512 394.409 512 343.849C512 293.289 397.385 252.302 256 252.302C114.615 252.302 0 293.289 0 343.849C0 394.409 114.615 435.396 256 435.396Z" fill="#33AA55"/>
<path d="M450.189 456H338.415V414.793H450.189C461.568 414.793 470.793 424.018 470.793 435.397C470.793 446.775 461.568 456 450.189 456Z" fill="#49B76B"/>
<path d="M173.586 456H61.811C50.432 456 41.207 446.775 41.207 435.396C41.207 424.017 50.432 414.792 61.811 414.792H173.586V456Z" fill="#49B76B"/>
<path d="M253.716 435.345C339.059 435.345 408.243 384.61 408.243 322.025C408.243 259.44 339.059 208.705 253.716 208.705C168.374 208.705 99.1895 259.44 99.1895 322.025C99.1895 384.61 168.374 435.345 253.716 435.345Z" fill="#5EC783"/>
<path d="M403.579 294.308C386.716 245.123 326.019 208.706 253.716 208.706C168.373 208.706 99.1895 259.441 99.1895 322.026C99.1895 384.611 168.373 435.346 253.716 435.346C269.565 435.346 284.854 433.593 299.249 430.343C240.264 417.024 196.342 378.509 190.842 331.929C211.667 337.037 233.592 339.697 256 339.697C311.216 339.696 363.502 323.588 403.579 294.308V294.308Z" fill="#49B76B"/>
<path d="M366.893 58.24C362.807 55.95 360.302 51.607 360.306 46.923V46.846C360.306 21.243 339.551 0.488037 313.948 0.488037C298.268 0.488037 284.409 8.27304 276.02 20.188C271.44 26.694 264.101 30.645 256.145 30.641C256.097 30.641 256.048 30.641 256 30.641C255.952 30.641 255.903 30.641 255.855 30.641C247.899 30.646 240.56 26.694 235.98 20.188C227.591 8.27304 213.732 0.488037 198.052 0.488037C172.449 0.488037 151.694 21.243 151.694 46.846V46.923C151.698 51.607 149.192 55.95 145.107 58.239C99.8594 83.599 70.5674 124.091 70.5674 169.715C70.5674 246.524 153.588 308.789 256 308.789C358.412 308.789 441.433 246.523 441.433 169.715C441.433 124.092 412.141 83.6 366.893 58.24V58.24Z" fill="#89D47F"/>
<path d="M328.279 297.828C125.501 276.327 88.7654 109.56 145.107 58.24C99.8594 83.6 70.5684 124.092 70.5684 169.715C70.5684 246.524 153.589 308.789 256.001 308.789C281.642 308.79 306.067 304.886 328.279 297.828Z" fill="#5EC783"/>
<path d="M256 456H173.585C162.206 456 152.981 446.775 152.981 435.396C152.981 424.017 162.206 414.792 173.585 414.792H256V456Z" fill="#5EC783"/>
<path d="M338.415 456H256C244.621 456 235.396 446.775 235.396 435.396C235.396 424.017 244.621 414.792 256 414.792H338.415C349.794 414.792 359.02 424.017 359.02 435.396C359.019 446.775 349.794 456 338.415 456Z" fill="#89D47F"/>
<path d="M174.042 109.936C190.743 109.936 204.283 99.1541 204.283 85.854C204.283 72.5539 190.743 61.772 174.042 61.772C157.34 61.772 143.801 72.5539 143.801 85.854C143.801 99.1541 157.34 109.936 174.042 109.936Z" fill="white"/>
<path d="M337.958 109.936C354.659 109.936 368.199 99.1541 368.199 85.854C368.199 72.5539 354.659 61.772 337.958 61.772C321.256 61.772 307.717 72.5539 307.717 85.854C307.717 99.1541 321.256 109.936 337.958 109.936Z" fill="white"/>
<path d="M191.667 70.1711C187.524 70.1711 184.167 66.8131 184.167 62.6711V50.3091C184.167 46.1671 187.524 42.8091 191.667 42.8091C195.81 42.8091 199.167 46.1671 199.167 50.3091V62.6711C199.167 66.8131 195.81 70.1711 191.667 70.1711Z" fill="#4E5660"/>
<path d="M320.333 70.1711C316.19 70.1711 312.833 66.8131 312.833 62.6711V50.3091C312.833 46.1671 316.19 42.8091 320.333 42.8091C324.476 42.8091 327.833 46.1671 327.833 50.3091V62.6711C327.833 66.8131 324.476 70.1711 320.333 70.1711Z" fill="#4E5660"/>
<path d="M256 77.5301C247.332 77.5301 239.089 73.7761 233.385 67.2301C230.663 64.1071 230.989 59.3701 234.112 56.6481C237.234 53.9271 241.971 54.2511 244.694 57.3751C247.548 60.6501 251.67 62.5291 256.001 62.5291C260.332 62.5291 264.453 60.6501 267.308 57.3751C270.03 54.2511 274.766 53.9271 277.89 56.6481C281.012 59.3691 281.338 64.1071 278.617 67.2301C272.911 73.7761 264.668 77.5301 256 77.5301V77.5301Z" fill="#4E5660"/>
</svg>
